<?xml version="1.0" encoding="UTF-8" standalone="no"?>
<svg
   width="100"
   height="100"
   viewBox="0 0 24 24"
   fill="none"
   stroke="currentColor"
   stroke-width="1.5"
   stroke-linecap="round"
   stroke-linejoin="round"
   class="feather feather-calendar"
   version="1.1"
   id="svg31"
   xmlns="http://www.w3.org/2000/svg"
   xmlns:svg="http://www.w3.org/2000/svg">
  <defs
     id="defs35" />
  <rect
     x="3"
     y="4"
     width="18"
     height="18"
     rx="2"
     ry="2"
     id="rect23" />
  <line
     x1="8.75"
     y1="2"
     x2="8.75"
     y2="6"
     id="line27"
     style="stroke-width:2.12132" />
  <line
     x1="3.015852"
     y1="9.0488768"
     x2="21.015852"
     y2="9.0488768"
     id="line29" />
  <g
     aria-label="Z"
     id="text801"
     style="font-size:9.6px;line-height:1.25;fill:#000000;stroke:none;stroke-width:0.36">
    <path
       d="M 10.522873,17.34214 H 4.6588106 V 16.034328 L 8.1369358,11.712452 H 4.8275606 v -1.35 h 5.5078124 v 1.33125 L 6.8619357,15.99214 h 3.6609373 z"
       style="font-weight:bold;-inkscape-font-specification:'sans-serif Bold'"
       id="path13528" />
  </g>
  <g
     aria-label="2"
     id="text6955"
     style="font-size:9.6px;line-height:1.25;fill:#000000;stroke:none;stroke-width:0.36">
    <path
       d="m 15.239875,20.290621 -7.001485,0 v -1.153125 c 0.41875,-0.303125 0.8375,-0.625 1.2562501,-0.965625 0.4218753,-0.340625 0.7593749,-0.634375 1.0124999,-0.88125 0.378125,-0.365625 0.646875,-0.684375 0.80625,-0.95625 0.159375,-0.271875 0.239063,-0.540625 0.239063,-0.80625 0,-0.31875 -0.103125,-0.564063 -0.309375,-0.735938 -0.203125,-0.175 -0.496875,-0.2625 -0.88125,-0.2625 -0.2875,0 -0.5906254,0.05937 -0.9093754,0.178125 -0.3156251,0.11875 -0.6093751,0.270313 -0.8812501,0.454688 h -0.15 v -1.551563 c 0.221875,-0.09687 0.5484375,-0.19375 0.9796875,-0.290625 0.4343753,-0.09688 0.86875,-0.145312 1.303125,-0.145312 0.875,0 1.542188,0.184375 2.001563,0.553125 0.459375,0.365625 0.689062,0.884375 0.689062,1.55625 0,0.440625 -0.110937,0.859375 -0.332812,1.25625 -0.21875,0.396875 -0.554688,0.80625 -1.007813,1.228125 -0.284375,0.2625 -0.570312,0.504687 -0.857812,0.726562 -0.2875,0.21875 -0.492188,0.371875 -0.614063,0.459375 l 4.657735,0 z"
       style="font-weight:bold"
       id="path13627" />
  </g>
  <g
     aria-label="K"
     id="text12035"
     style="font-size:9.6px;line-height:1.25;fill:#000000;stroke:none;stroke-width:0.36">
    <path
       d="m 19.881811,17.310436 h -2.207812 l -2.085938,-2.79375 -0.421875,0.510938 v 2.282812 h -1.8 v -6.979688 h 1.8 v 3.159376 l 2.49375,-3.159376 h 2.085938 l -2.728125,3.229688 z"
       style="font-weight:bold"
       id="path13570" />
  </g>
  <line
     x1="15.550859"
     y1="2.0739763"
     x2="15.550859"
     y2="6.0739765"
     id="line27-3"
     style="stroke-width:2.12132" />
  <path
     style="fill:#ffffff;stroke:#ffffff;stroke-width:0.24px;stroke-linecap:butt;stroke-linejoin:miter;stroke-opacity:1"
     d="M 8.7499999,2 V 6"
     id="path13197" />
  <path
     style="fill:#ffffff;stroke:#ffffff;stroke-width:0.24px;stroke-linecap:butt;stroke-linejoin:miter;stroke-opacity:1"
     d="m 15.550859,2.0739763 v 4"
     id="path13197-5" />
</svg>
