<?xml version="1.0" encoding="UTF-8"?>
<svg class="feather feather-calendar" width="100" height="100" fill="none" stroke="currentColor" stroke-linecap="round" stroke-linejoin="round" stroke-width="1.5" version="1.1" viewBox="0 0 24 24" xmlns="http://www.w3.org/2000/svg">
 <rect x="3" y="4" width="18" height="18" rx="2" ry="2"/>
 <line x1="8.75" x2="8.75" y1="2" y2="6" stroke-width="2.1213"/>
 <line x1="3.0159" x2="21.016" y1="9.0489" y2="9.0489"/>
 <g fill="#000" stroke="none" stroke-width=".36">
  <g aria-label="Z">
   <path d="m10.523 17.342h-5.8641v-1.3078l3.4781-4.3219h-3.3094v-1.35h5.5078v1.3312l-3.4734 4.2984h3.6609z"/>
  </g>
  <g aria-label="2">
   <path d="m15.24 20.291h-7.0015v-1.1531c0.41875-0.30312 0.8375-0.625 1.2563-0.96562 0.42188-0.34062 0.75937-0.63438 1.0125-0.88125 0.37812-0.36562 0.64688-0.68438 0.80625-0.95625s0.23906-0.54062 0.23906-0.80625c0-0.31875-0.10312-0.56406-0.30938-0.73594-0.20312-0.175-0.49688-0.2625-0.88125-0.2625-0.2875 0-0.59063 0.05937-0.90938 0.17812-0.31563 0.11875-0.60938 0.27031-0.88125 0.45469h-0.15v-1.5516c0.22188-0.09687 0.54844-0.19375 0.97969-0.29062 0.43438-0.09688 0.86875-0.14531 1.3031-0.14531 0.875 0 1.5422 0.18438 2.0016 0.55312 0.45938 0.36562 0.68906 0.88438 0.68906 1.5562 0 0.44062-0.11094 0.85938-0.33281 1.2562-0.21875 0.39688-0.55469 0.80625-1.0078 1.2281-0.28438 0.2625-0.57031 0.50469-0.85781 0.72656-0.2875 0.21875-0.49219 0.37188-0.61406 0.45938h4.6577z"/>
  </g>
  <g aria-label="K">
   <path d="m19.882 17.31h-2.2078l-2.0859-2.7938-0.42188 0.51094v2.2828h-1.8v-6.9797h1.8v3.1594l2.4938-3.1594h2.0859l-2.7281 3.2297z"/>
  </g>
 </g>
 <line x1="15.551" x2="15.551" y1="2.074" y2="6.074" stroke-width="2.1213"/>
 <path d="m8.75 2v4" fill="#fff" stroke="#fff" stroke-linecap="butt" stroke-linejoin="miter" stroke-width=".24px"/>
 <path d="m15.551 2.074v4" fill="#fff" stroke="#fff" stroke-linecap="butt" stroke-linejoin="miter" stroke-width=".24px"/>
</svg>
