<?xml version="1.0" encoding="UTF-8" standalone="no"?>
<!-- Created with Inkscape (http://www.inkscape.org/) -->

<svg
   width="200"
   height="200"
   viewBox="0 0 52.916665 52.916668"
   version="1.1"
   id="svg136"
   inkscape:version="1.1.1 (3bf5ae0d25, 2021-09-20)"
   sodipodi:docname="Z2KLogo-Inkscape.svg"
   xmlns:inkscape="http://www.inkscape.org/namespaces/inkscape"
   xmlns:sodipodi="http://sodipodi.sourceforge.net/DTD/sodipodi-0.dtd"
   xmlns="http://www.w3.org/2000/svg"
   xmlns:svg="http://www.w3.org/2000/svg">
  <sodipodi:namedview
     id="namedview138"
     pagecolor="#ffffff"
     bordercolor="#666666"
     borderopacity="1.0"
     inkscape:pageshadow="2"
     inkscape:pageopacity="0.0"
     inkscape:pagecheckerboard="0"
     inkscape:document-units="mm"
     showgrid="false"
     units="px"
     inkscape:zoom="6.2217172"
     inkscape:cx="118.85786"
     inkscape:cy="99.249128"
     inkscape:window-width="2262"
     inkscape:window-height="1795"
     inkscape:window-x="6946"
     inkscape:window-y="60"
     inkscape:window-maximized="0"
     inkscape:current-layer="layer1" />
  <defs
     id="defs133" />
  <g
     inkscape:label="Layer 1"
     inkscape:groupmode="layer"
     id="layer1">
    <g
       aria-label="Z"
       id="text801"
       style="font-size:9.6px;line-height:1.25;fill:#000000;stroke:none;stroke-width:0.36"
       transform="matrix(3.013199,0,0,3.9204394,-10.606909,-32.68054)">
      <path
         d="M 10.522873,17.34214 H 4.6588106 V 16.034328 L 8.1369358,11.712452 H 4.8275606 v -1.35 h 5.5078124 v 1.33125 L 6.8619357,15.99214 h 3.6609373 z"
         style="font-weight:bold;-inkscape-font-specification:'sans-serif Bold'"
         id="path13528" />
    </g>
    <g
       aria-label="2"
       id="text6955"
       style="font-size:9.6px;line-height:1.25;fill:#000000;stroke:none;stroke-width:0.36"
       transform="matrix(3.013199,0,0,3.9204394,-10.606909,-32.68054)">
      <path
         d="M 15.141083,20.290621 H 8.23839 v -1.153125 c 0.41875,-0.303125 0.8375,-0.625 1.2562501,-0.965625 0.4218753,-0.340625 0.7593749,-0.634375 1.0124999,-0.88125 0.378125,-0.365625 0.646875,-0.684375 0.80625,-0.95625 0.159375,-0.271875 0.239063,-0.540625 0.239063,-0.80625 0,-0.31875 -0.103125,-0.564063 -0.309375,-0.735938 -0.203125,-0.175 -0.496875,-0.2625 -0.88125,-0.2625 -0.2875,0 -0.5906254,0.05937 -0.9093754,0.178125 -0.3156251,0.11875 -0.6093751,0.270313 -0.8812501,0.454688 h -0.15 v -1.551563 c 0.221875,-0.09687 0.5484375,-0.19375 0.9796875,-0.290625 0.4343753,-0.09688 0.86875,-0.145312 1.303125,-0.145312 0.875,0 1.542188,0.184375 2.001563,0.553125 0.459375,0.365625 0.689062,0.884375 0.689062,1.55625 0,0.440625 -0.110937,0.859375 -0.332812,1.25625 -0.21875,0.396875 -0.554688,0.80625 -1.007813,1.228125 -0.284375,0.2625 -0.570312,0.504687 -0.857812,0.726562 -0.2875,0.21875 -0.492188,0.371875 -0.614063,0.459375 h 4.573056 z"
         style="font-weight:bold"
         id="path13627"
         sodipodi:nodetypes="cccccsscscccccscscccccc" />
    </g>
    <g
       aria-label="K"
       id="text12035"
       style="font-size:9.6px;line-height:1.25;fill:#000000;stroke:none;stroke-width:0.36"
       transform="matrix(3.013199,0,0,3.9204394,-10.606909,-32.68054)">
      <path
         d="m 19.881811,17.310436 h -2.207812 l -2.085938,-2.79375 -0.421875,0.510938 v 2.282812 h -1.8 v -6.979688 h 1.8 v 3.159376 l 2.49375,-3.159376 h 2.085938 l -2.728125,3.229688 z"
         style="font-weight:bold"
         id="path13570" />
    </g>
  </g>
</svg>
