<?xml version="1.0" encoding="UTF-8"?>
<!-- Created with Inkscape (http://www.inkscape.org/) -->
<svg width="200" height="200" version="1.1" viewBox="0 0 52.917 52.917" xmlns="http://www.w3.org/2000/svg">
 <g stroke-width=".36">
  <g transform="matrix(3.0132 0 0 3.9204 -10.607 -32.681)" aria-label="Z">
   <path d="m10.523 17.342h-5.8641v-1.3078l3.4781-4.3219h-3.3094v-1.35h5.5078v1.3312l-3.4734 4.2984h3.6609z"/>
  </g>
  <g transform="matrix(3.0132 0 0 3.9204 -10.607 -32.681)" aria-label="2">
   <path d="m15.141 20.291h-6.9027v-1.1531c0.41875-0.30312 0.8375-0.625 1.2563-0.96562 0.42188-0.34062 0.75937-0.63438 1.0125-0.88125 0.37812-0.36562 0.64688-0.68438 0.80625-0.95625s0.23906-0.54062 0.23906-0.80625c0-0.31875-0.10312-0.56406-0.30938-0.73594-0.20312-0.175-0.49688-0.2625-0.88125-0.2625-0.2875 0-0.59063 0.05937-0.90938 0.17812-0.31563 0.11875-0.60938 0.27031-0.88125 0.45469h-0.15v-1.5516c0.22188-0.09687 0.54844-0.19375 0.97969-0.29062 0.43438-0.09688 0.86875-0.14531 1.3031-0.14531 0.875 0 1.5422 0.18438 2.0016 0.55312 0.45938 0.36562 0.68906 0.88438 0.68906 1.5562 0 0.44062-0.11094 0.85938-0.33281 1.2562-0.21875 0.39688-0.55469 0.80625-1.0078 1.2281-0.28438 0.2625-0.57031 0.50469-0.85781 0.72656-0.2875 0.21875-0.49219 0.37188-0.61406 0.45938h4.5731z"/>
  </g>
  <g transform="matrix(3.0132 0 0 3.9204 -10.607 -32.681)" aria-label="K">
   <path d="m19.882 17.31h-2.2078l-2.0859-2.7938-0.42188 0.51094v2.2828h-1.8v-6.9797h1.8v3.1594l2.4938-3.1594h2.0859l-2.7281 3.2297z"/>
  </g>
 </g>
</svg>
